<?xml version="1.0" encoding="UTF-8" standalone="no"?>
<!-- Created with Inkscape (http://www.inkscape.org/) -->

<svg
   xmlns:dc="http://purl.org/dc/elements/1.1/"
   xmlns:cc="http://creativecommons.org/ns#"
   xmlns:rdf="http://www.w3.org/1999/02/22-rdf-syntax-ns#"
   xmlns:svg="http://www.w3.org/2000/svg"
   xmlns="http://www.w3.org/2000/svg"
   xmlns:sodipodi="http://sodipodi.sourceforge.net/DTD/sodipodi-0.dtd"
   xmlns:inkscape="http://www.inkscape.org/namespaces/inkscape"
   id="svg2"
   version="1.1"
   inkscape:version="0.91 r13725"
   xml:space="preserve"
   width="914.11371"
   height="609.66101"
   viewBox="0 0 914.11373 609.66096"
   sodipodi:docname="logo.svg"><metadata
     id="metadata8"><rdf:RDF><cc:Work
         rdf:about=""><dc:format>image/svg+xml</dc:format><dc:type
           rdf:resource="http://purl.org/dc/dcmitype/StillImage" /><dc:title></dc:title></cc:Work></rdf:RDF></metadata><defs
     id="defs6"><radialGradient
       fx="0"
       fy="0"
       cx="0"
       cy="0"
       r="1"
       gradientUnits="userSpaceOnUse"
       gradientTransform="matrix(11598.841,0,0,-11598.841,7335.0102,7335.0102)"
       spreadMethod="pad"
       id="radialGradient14"><stop
         style="stop-opacity:1;stop-color:#50ade5"
         offset="0"
         id="stop16" /><stop
         style="stop-opacity:1;stop-color:#50ade5"
         offset="0.2"
         id="stop18" /><stop
         style="stop-opacity:1;stop-color:#50ade5"
         offset="0.55282531"
         id="stop20" /><stop
         style="stop-opacity:1;stop-color:#1f2755"
         offset="1"
         id="stop22" /></radialGradient></defs><sodipodi:namedview
     pagecolor="#ffffff"
     bordercolor="#666666"
     borderopacity="1"
     objecttolerance="10"
     gridtolerance="10"
     guidetolerance="10"
     inkscape:pageopacity="0"
     inkscape:pageshadow="2"
     inkscape:window-width="1366"
     inkscape:window-height="719"
     id="namedview4"
     showgrid="false"
     inkscape:zoom="0.33589188"
     inkscape:cx="315.14917"
     inkscape:cy="131.52384"
     inkscape:window-x="0"
     inkscape:window-y="25"
     inkscape:window-maximized="1"
     inkscape:current-layer="g4193"
     fit-margin-top="0"
     fit-margin-left="0"
     fit-margin-right="0"
     fit-margin-bottom="0"
     inkscape:showpageshadow="false"
     showborder="false" /><g
     id="g10"
     inkscape:groupmode="layer"
     inkscape:label="ink_ext_XXXXXX"
     transform="matrix(1.25,0,0,-1.25,-2343.9736,3890.9735)"><g
       id="g12"
       transform="scale(0.339127,0.339127)"><flowRoot
         xml:space="preserve"
         id="flowRoot4207"
         style="font-style:normal;font-weight:normal;font-size:70px;line-height:125%;font-family:sans-serif;letter-spacing:0px;word-spacing:0px;fill:#000000;fill-opacity:1;stroke:none;stroke-width:1px;stroke-linecap:butt;stroke-linejoin:miter;stroke-opacity:1"
         transform="matrix(2.3589983,0,0,-2.3589983,3988.1399,11474.2)"><flowRegion
           id="flowRegion4209"><rect
             id="rect4211"
             width="3500"
             height="816.66669"
             x="-3833.3333"
             y="1162.984"
             style="font-size:70px" /></flowRegion><flowPara
           id="flowPara4213" /></flowRoot><g
         id="g4223"
         transform="matrix(0.33238424,0,0,0.33238424,4159.4248,5397.5633)"><path
           inkscape:connector-curvature="0"
           id="path26"
           style="fill:#ffffff;fill-opacity:1;fill-rule:evenodd;stroke:none"
           d="m 7376.81,9948.21 c -206.2,0 -373.99,167.79 -373.99,373.99 0,206.2 167.79,374 373.99,374 206.24,0 374.02,-167.8 374.02,-374 0,-206.2 -167.78,-373.99 -374.02,-373.99" /><path
           inkscape:connector-curvature="0"
           id="path28"
           style="fill:#ffffff;fill-opacity:1;fill-rule:evenodd;stroke:none"
           d="m 7240.73,8126.45 -17.66,115 c -0.74,3.12 -1.48,6.66 -2.36,11.14 -1.18,6.07 -2.69,14.36 -4.78,26.13 -3.72,20.96 -8.84,50.74 -15.33,88.49 -45.35,263.97 -183.39,1067.27 -275.27,1280.55 -102.82,238.61 -278.27,436.24 -447.94,627.34 -56.91,64.1 -110.67,124.6 -161.77,186.7 -153.39,186.1 -260.82,390.1 -310.74,589.9 -39.19,157 -30.34,260.6 -29.19,271.9 l 291.19,14.5 -0.18,0.9 c 0.15,-0.6 14.51,-65.7 61.72,-166.4 43.43,-92.6 124.49,-235.2 263.85,-388.9 180.29,-198.8 479.11,-430.3 680.45,-561.3 l 0.44,-0.3 c 32.23,-21 51.7,-33.7 94.25,-33.7 41.69,0 62.25,12.5 108.78,43.2 205.05,135.2 490.58,358.3 666.38,552.1 139.36,153.7 220.39,296.3 263.86,388.9 47.21,100.7 61.57,165.8 61.71,166.4 l -0.2,-0.9 291.22,-14.5 c 1.12,-11.3 9.99,-114.9 -29.23,-271.9 -49.89,-199.8 -157.34,-403.8 -310.71,-589.9 -51.13,-62.1 -104.88,-122.6 -161.76,-186.7 -169.67,-191.1 -345.12,-388.73 -447.95,-627.37 -91.91,-213.34 -229.97,-1016.82 -275.35,-1280.82 -6.46,-37.65 -11.56,-67.37 -15.28,-88.28 -2.06,-11.71 -3.59,-19.99 -4.77,-26.07 -0.86,-4.42 -1.59,-7.96 -2.33,-11.06 L 7494,8125.32 c 0,0 -126.33,-0.14 -126.48,-0.14 -0.06,0 -126.79,1.27 -126.79,1.27" /><path
           inkscape:connector-curvature="0"
           id="path30"
           style="fill:#ffffff;fill-opacity:1;fill-rule:evenodd;stroke:none"
           d="m 5820.59,9316.62 c -99.88,0 -193.8,38.89 -264.45,109.54 -145.82,145.82 -145.82,383.07 0,528.89 70.65,70.65 164.57,109.55 264.47,109.55 99.91,0 193.82,-38.9 264.45,-109.55 145.81,-145.79 145.81,-383.07 0,-528.89 -70.65,-70.65 -164.57,-109.54 -264.47,-109.54" /><path
           inkscape:connector-curvature="0"
           id="path32"
           style="fill:#ffffff;fill-opacity:1;fill-rule:evenodd;stroke:none"
           d="m 7270.04,8087.2 -6.9,0 c -2.71,0 -5.34,0.05 -7.93,0.17 l -41.08,0.51 -33.29,24.41 c -9.58,5.96 -19.34,12.77 -29.9,20.17 -17.55,12.24 -42.14,29.63 -73.28,51.63 -218.62,154.49 -883.85,624.57 -1099.41,710.32 -241.44,96.05 -505.23,111.73 -760.36,126.89 -85.54,5.07 -166.34,9.88 -246.37,17.6 -240.08,23.15 -460.3,91.44 -636.89,197.45 -138.72,83.28 -205.71,162.8 -212.88,171.59 l 195.65,216.17 -0.76,0.5 c 0.53,-0.35 56.76,-36.24 161.29,-74.01 96.19,-34.74 254.33,-78.29 461.54,-88.4 30.32,-1.48 62.87,-2.25 96.81,-2.25 257.57,0 578.01,43.41 781.33,86.43 l 0.5,0.12 c 37.62,7.93 60.33,12.74 90.44,42.84 29.48,29.49 35.2,52.82 46.41,107.43 49.39,240.56 93.5,600.23 80.74,861.63 -10.12,207.2 -53.67,365.4 -88.41,461.6 -37.77,104.5 -73.66,160.7 -74.01,161.3 l 0.5,-0.8 216.17,195.6 c 8.79,-7.1 88.32,-74.1 171.59,-212.8 106.01,-176.6 174.3,-396.9 197.45,-636.9 7.72,-80.1 12.53,-160.9 17.6,-246.4 15.16,-255.1 30.85,-518.92 126.89,-760.36 85.86,-215.85 556.36,-881.59 710.97,-1100.35 21.96,-31.11 39.34,-55.68 51.48,-73.08 6.84,-9.73 11.62,-16.69 15.07,-21.82 2.6,-3.83 4.6,-6.9 6.31,-9.67 l 48.27,-65.73 -39.13,-77.49 c -0.85,-1.8 -1.74,-3.6 -2.68,-5.37 l -0.71,-1.38 -39.27,-77.55 -1.51,0 -0.53,-1 -81.71,1" /><path
           inkscape:connector-curvature="0"
           id="path70"
           style="fill:#ffffff;fill-opacity:1;fill-rule:evenodd;stroke:none"
           d="m 8923.87,9294.41 c -99.87,0 -193.82,38.89 -264.44,109.52 -145.84,145.84 -145.84,383.1 -0.03,528.91 70.65,70.66 164.57,109.56 264.47,109.56 99.91,0 193.83,-38.9 264.45,-109.56 145.81,-145.81 145.81,-383.07 0,-528.91 -70.62,-70.63 -164.54,-109.52 -264.45,-109.52" /><path
           inkscape:connector-curvature="0"
           id="path72"
           style="fill:#ffffff;fill-opacity:1;fill-rule:evenodd;stroke:none"
           d="m 7377.32,8078.38 -38.69,76.43 -1.68,3.21 c -0.74,1.48 -1.48,2.95 -2.18,4.46 l -39.22,77.55 48.3,65.82 c 1.71,2.74 3.71,5.81 6.28,9.64 3.45,5.1 8.23,12 15.01,21.73 12.12,17.31 29.4,41.78 51.27,72.74 154.7,218.86 625.34,884.81 711.27,1100.8 96.04,241.42 111.7,505.24 126.86,760.34 5.1,85.6 9.87,166.4 17.6,246.4 23.18,240.1 91.44,460.3 197.48,636.9 83.27,138.7 162.8,205.7 171.59,212.9 l 216.14,-195.7 0.53,0.8 c -0.38,-0.6 -36.27,-56.8 -74.01,-161.3 -34.77,-96.2 -78.32,-254.4 -88.44,-461.6 -13.06,-268.1 34.47,-643.11 84.22,-878.09 l 0.09,-0.5 c 7.96,-37.63 12.74,-60.33 42.87,-90.44 29.46,-29.49 52.82,-35.21 107.43,-46.41 186.47,-38.31 498.63,-83.01 764.81,-82.98 33.94,0 66.53,0.74 96.81,2.21 207.21,10.12 365.34,53.67 461.54,88.41 104.6,37.77 160.8,73.65 161.3,74.04 l -0.7,-0.53 195.6,-216.15 c -7.2,-8.78 -74.2,-88.31 -212.9,-171.58 -176.6,-106.04 -396.81,-174.3 -636.86,-197.48 -80.03,-7.73 -160.83,-12.5 -246.37,-17.61 -255.13,-15.15 -518.92,-30.84 -760.36,-126.88 -215.91,-85.87 -881.68,-556.4 -1100.48,-711.03 -30.81,-21.79 -55.17,-39.01 -72.54,-51.13 -10.43,-7.31 -20.11,-14.07 -29.6,-19.99 l -34,-24.92 -42.25,-0.06 c -1.98,-0.06 -3.96,-0.09 -5.99,-0.09 -0.06,0 -90.73,0.09 -90.73,0.09" /><path
           inkscape:connector-curvature="0"
           id="path74"
           style="fill:#f03a47;fill-opacity:1;fill-rule:evenodd;stroke:none"
           d="m 8612.46,11308.8 c 0,0 -59.1,-291.6 -360.67,-624.1 -193.91,-213.8 -497.8,-446.6 -694.43,-576.2 -52.01,-34.3 -103.29,-67.5 -189.95,-67.5 -86.64,0 -135.79,32.2 -175.1,57.8 -195.86,127.4 -510.4,366.6 -709.26,585.9 -301.57,332.5 -360.66,624.1 -360.66,624.1 0,0 -34.21,-339.2 306.99,-753.3 204.73,-248.4 483.45,-506.2 631.36,-849.41 124.02,-287.92 304.4,-1448.19 306.67,-1433.33 2.3,-14.86 182.67,1145.41 306.7,1433.33 147.87,343.21 426.59,601.01 631.32,849.41 341.2,414.1 307.03,753.3 307.03,753.3" /><path
           inkscape:connector-curvature="0"
           id="path76"
           style="fill:#f03a47;fill-opacity:1;fill-rule:evenodd;stroke:none"
           d="m 7603.39,10322.2 c 0,-125.1 -101.43,-226.6 -226.58,-226.6 -125.11,0 -226.55,101.5 -226.55,226.6 0,125.1 101.44,226.6 226.55,226.6 125.15,0 226.58,-101.5 226.58,-226.6" /><path
           inkscape:connector-curvature="0"
           id="path78"
           style="fill:#0e79b2;fill-opacity:1;fill-rule:evenodd;stroke:none"
           d="m 5996.68,11262 c 0,0 164.39,-248 186.28,-696.4 14.06,-288.3 -36.21,-667.76 -83.57,-898.47 -12.53,-61.04 -25.33,-120.78 -86.6,-182.02 -61.25,-61.28 -118.78,-73.28 -164.66,-82.98 -228.62,-48.36 -620.18,-101.64 -915.85,-87.2 -448.39,21.89 -696.35,186.28 -696.35,186.28 0,0 215.67,-264.03 749.75,-315.55 320.44,-30.93 699.79,-16.1 1047.07,-154.25 291.27,-115.85 1239.27,-808.78 1230.36,-796.63 12.15,-8.9 -680.78,939.09 -796.63,1230.36 -138.15,347.28 -123.32,726.66 -154.25,1047.06 -51.52,534.1 -315.55,749.8 -315.55,749.8" /><path
           inkscape:connector-curvature="0"
           id="path80"
           style="fill:#0e79b2;fill-opacity:1;fill-rule:evenodd;stroke:none"
           d="m 5980.82,9850.81 c 88.46,-88.46 88.46,-231.92 -0.03,-320.41 -88.46,-88.46 -231.92,-88.46 -320.38,0 -88.49,88.49 -88.49,231.92 0,320.41 88.46,88.46 231.92,88.46 320.41,0" /><path
           inkscape:connector-curvature="0"
           id="path102"
           style="fill:#2ca58d;fill-opacity:1;fill-rule:evenodd;stroke:none"
           d="m 10495.2,9492.33 c 0,0 -248,-164.42 -696.35,-186.3 -288.3,-14.07 -667.77,36.24 -898.45,83.6 -61.04,12.53 -120.78,25.3 -182.06,86.57 -61.24,61.28 -73.24,118.78 -82.94,164.69 -48.36,228.61 -101.65,620.21 -87.23,915.81 21.88,448.4 186.31,696.4 186.31,696.4 0,0 -264.03,-215.7 -315.58,-749.8 -30.9,-320.4 -16.07,-699.76 -154.22,-1047.06 -115.89,-291.28 -808.78,-1239.27 -796.63,-1230.36 -8.94,-12.12 939.06,680.77 1230.36,796.63 347.27,138.15 726.6,123.31 1047.07,154.25 534.02,51.54 749.72,315.57 749.72,315.57" /><path
           inkscape:connector-curvature="0"
           id="path104"
           style="fill:#2ca58d;fill-opacity:1;fill-rule:evenodd;stroke:none"
           d="m 9084.08,9508.2 c -88.49,-88.5 -231.92,-88.47 -320.41,0 -88.47,88.49 -88.47,231.91 0,320.41 88.46,88.46 231.92,88.46 320.41,0 88.46,-88.5 88.46,-231.95 0,-320.41" /></g><g
         id="g4273"
         transform="translate(-5129.2898,503.1872)"><g
           id="g4193"><g
             transform="matrix(1.3711354,0,0,-1.0535632,15322.273,8131.6778)"
             style="font-style:normal;font-weight:normal;font-size:40px;line-height:125%;font-family:sans-serif;letter-spacing:0px;word-spacing:0px;fill:#000000;fill-opacity:1;stroke:none;stroke-width:1px;stroke-linecap:butt;stroke-linejoin:miter;stroke-opacity:1"
             id="flowRoot4215"><path
               d="m -3167.7555,561.10746 q 0,14.36526 -9.8288,26.08429 -9.8289,11.71902 -24.1942,21.16985 -13.9872,9.07279 -29.4865,15.87739 -15.4994,6.8046 -26.8404,11.34099 0,7.9387 -0.378,16.25543 -0.3781,8.31672 -1.1341,16.63345 12.097,-6.04853 27.2184,-11.34099 15.1213,-5.29246 28.7305,-5.29246 10.9629,0 17.7675,4.53639 7.1827,4.5364 7.1827,15.87739 0,12.4751 -9.0728,22.30396 -8.6948,9.82886 -21.1699,17.38952 -12.4751,7.56066 -26.0843,12.85312 -13.6092,5.29247 -23.06,8.31673 0,12.47509 -0.378,24.95019 -0.3781,12.09706 -1.1341,24.19412 -0.3781,6.04853 -1.5122,15.12132 -0.756,9.07279 -3.7803,17.76756 -2.6462,8.31672 -7.9387,14.74329 -5.2925,6.04853 -13.6092,6.04853 -7.9387,0 -13.6092,-7.56067 -5.6705,-7.93869 -9.8288,-20.03575 -3.7804,-12.09706 -6.4266,-26.84035 -2.2682,-15.12132 -3.7803,-29.48658 -1.1341,-14.36526 -1.5122,-26.46232 0,-12.09706 0,-18.52362 0,-4.91443 0,-14.36526 0.3781,-9.82886 0.3781,-21.54789 0.378,-11.71902 0.756,-24.57215 0.7561,-12.85312 1.5122,-24.19412 0.756,-11.71902 1.8901,-20.41378 1.5122,-9.0728 3.4023,-13.23116 4.1584,-8.31673 19.6578,-16.25543 15.8773,-8.31672 35.157,-14.36525 19.2797,-6.42657 37.4253,-10.2069 18.5236,-4.15836 28.3525,-4.15836 4.5364,0 8.6948,0.75606 4.5364,0.37804 8.3167,2.2682 3.7803,1.89017 6.0485,5.29247 2.2682,3.40229 2.2682,9.07279 z"
               style="font-style:normal;font-variant:normal;font-weight:normal;font-stretch:normal;font-size:387.105896px;font-family:Chewy;-inkscape-font-specification:Chewy;fill:#f03a47;fill-opacity:1"
               id="path4167"
               inkscape:connector-curvature="0" /><path
               d="m -2962.8615,701.35774 q 0,15.49936 -1.5122,32.13282 -1.5121,16.25542 -5.2924,31.75478 -3.7804,15.49935 -10.585,29.48658 -6.4265,13.60919 -16.6334,24.19412 -10.2069,10.20689 -24.5722,16.25542 -14.3652,6.04853 -33.6449,6.04853 -28.3525,0 -49.5224,-13.23116 -20.7918,-13.23116 -34.779,-33.64494 -13.9872,-20.79183 -20.7918,-46.12004 -6.8046,-25.70625 -6.8046,-50.65644 0,-2.64623 0,-4.91443 0,-2.2682 0.378,-4.15836 0.378,-7.9387 1.1341,-21.54789 1.1341,-13.60919 3.4023,-29.10855 2.2682,-15.49936 5.6705,-31.75478 3.7803,-16.25542 9.4508,-29.10855 6.0486,-12.85312 14.3653,-21.16985 8.3167,-8.31673 19.6577,-8.31673 8.3167,0 13.9872,4.91443 5.6705,4.91443 9.0728,12.47509 3.7804,7.18263 5.2925,15.49936 1.5121,7.93869 1.5121,14.74329 0,10.20689 -2.2682,20.79182 -1.8901,10.20689 -3.7803,20.41379 -3.0243,16.25542 -4.9144,32.51085 -1.8902,16.25542 -1.8902,33.26691 0,8.69476 0.7561,21.16985 1.1341,12.47509 4.9144,24.19412 3.7803,11.34099 10.5849,19.65772 7.1827,7.9387 19.2797,7.9387 11.719,0 18.5236,-7.9387 7.1827,-7.93869 10.585,-18.90165 3.4023,-10.96296 4.1583,-23.06002 1.1341,-12.09706 1.1341,-20.79182 0,-24.95019 -4.1583,-49.14431 -4.1584,-24.57215 -10.963,-48.76627 -1.8902,-6.42656 -3.4023,-12.85312 -1.1341,-6.42656 -1.1341,-12.85313 0,-10.58492 6.0485,-18.52362 6.4266,-7.93869 17.7676,-7.93869 9.4508,0 17.3895,7.56066 8.3167,7.18263 14.7433,19.27969 6.4266,11.71902 10.963,26.46231 4.9144,14.74329 8.3167,29.48658 3.4023,14.36526 4.9144,27.59642 1.8902,13.23116 2.2682,21.54789 0.3781,3.78033 0.3781,7.56066 0,3.4023 0,7.56066 z"
               style="font-style:normal;font-variant:normal;font-weight:normal;font-stretch:normal;font-size:387.105896px;font-family:Chewy;-inkscape-font-specification:Chewy;fill:#f03a47;fill-opacity:1"
               id="path4169"
               inkscape:connector-curvature="0" /><path
               d="m -2717.8961,671.87116 q 0,8.31673 -0.7561,23.81609 -0.756,15.12132 -3.0242,33.64494 -1.8902,18.14559 -5.6705,37.42528 -3.7804,18.90165 -9.8289,34.40101 -6.0485,15.49936 -14.7433,25.70625 -8.6947,9.82886 -20.7918,9.82886 -11.341,0 -20.7918,-6.42656 -9.4508,-6.8046 -17.0115,-16.25542 -7.5607,-9.82886 -13.2312,-20.79182 -5.6705,-10.96296 -9.4508,-20.03576 -7.9387,-19.27969 -15.8774,-37.80331 -7.9387,-18.90165 -15.1213,-38.18134 l 0,10.58492 q 0,16.25543 -0.378,32.51085 0,15.87739 -2.2682,31.75478 -0.7561,6.42656 -1.8902,15.12133 -0.7561,8.31672 -2.6462,16.63345 -1.8902,8.31673 -5.6705,15.49936 -3.4023,7.18263 -9.4509,10.58493 -3.4023,1.89016 -6.4265,2.2682 -2.6462,0.37803 -6.0485,1.13409 l -1.1341,0 q -8.6948,0 -14.7433,-5.67049 -6.0486,-6.04853 -10.2069,-15.12133 -4.1584,-9.45082 -6.8046,-20.79182 -2.2682,-11.71902 -3.7804,-22.68198 -1.1341,-11.341 -1.5121,-20.79182 -0.378,-9.45083 -0.378,-15.12133 0,-8.69476 0.756,-25.32822 0.7561,-17.01148 3.0243,-37.42527 2.6462,-20.41379 6.4266,-41.96168 4.1583,-21.54788 10.5849,-38.93741 6.4266,-17.76755 15.4994,-28.73051 9.0727,-11.34099 21.1698,-11.34099 11.719,0 20.7918,9.07279 9.4509,9.07279 16.6335,21.54789 7.1826,12.47509 12.097,26.08428 4.9145,13.60919 8.3168,22.68199 6.4265,17.76755 12.4751,35.53511 6.0485,17.38952 11.719,35.53511 0.378,0.75607 1.5121,4.15836 1.1341,3.4023 2.6463,7.56067 1.5121,4.53639 3.7803,10.20689 0,-4.91443 -0.378,-6.8046 0,-2.26819 0,-3.78033 0,-1.89016 0,-4.53639 0,-2.64624 0,-8.31673 -0.3781,-12.4751 -0.7561,-24.95019 0,-12.47509 0,-24.57215 0,-5.29246 0,-14.74329 0.378,-9.45083 1.1341,-20.03575 1.1341,-10.96296 3.0243,-21.92592 1.8901,-10.96296 5.2924,-19.65773 3.7803,-9.07279 9.0728,-14.74329 5.6705,-5.67049 13.6092,-5.67049 9.4508,0 16.2554,7.18263 6.8046,7.18262 11.341,18.52362 4.5364,10.96296 7.1826,24.95018 2.6463,13.60919 4.1584,26.84035 1.5121,13.23116 1.8902,24.57215 0.378,11.341 0.378,17.76756 z"
               style="font-style:normal;font-variant:normal;font-weight:normal;font-stretch:normal;font-size:387.105896px;font-family:Chewy;-inkscape-font-specification:Chewy;fill:#f03a47;fill-opacity:1"
               id="path4171"
               inkscape:connector-curvature="0" /><path
               d="m -2502.0392,778.09846 q 0,7.56066 -1.5121,18.14559 -1.1341,10.58493 -4.9144,20.41379 -3.7803,9.45083 -10.2069,16.25542 -6.4266,6.42656 -17.0115,6.42656 -13.9872,0 -21.1699,-10.20689 -6.8046,-10.20689 -9.8288,-24.19412 -3.0243,-14.36526 -3.7803,-29.10855 -0.3781,-14.74329 -0.7561,-23.43805 -27.2184,4.5364 -53.6807,7.9387 -0.7561,8.69476 -3.4023,21.54788 -2.2682,12.85313 -7.5607,24.95019 -4.9144,11.71902 -13.2311,20.41378 -7.9387,8.69477 -19.6578,8.69477 -9.0727,0 -14.3652,-6.42657 -4.9144,-6.80459 -7.5607,-15.87739 -2.6462,-9.07279 -3.4023,-18.52362 -0.378,-9.82886 -0.378,-16.25542 0,-21.54789 3.4023,-42.33971 3.4023,-21.16985 7.9387,-41.96167 2.2682,-10.96296 6.0485,-25.70625 3.7803,-14.7433 9.0728,-30.24265 5.6705,-15.87739 12.8531,-30.99872 7.5607,-15.49935 17.0115,-27.59641 9.4509,-12.09706 21.5479,-19.65772 12.0971,-7.56067 26.8404,-7.56067 14.3652,0 24.9501,6.42657 10.585,6.42656 18.5237,17.01149 7.9387,10.58492 13.2311,24.19411 5.2925,13.23116 8.6948,27.21839 3.7803,13.60919 6.0485,26.84035 2.6463,13.23116 4.5364,23.43805 4.9144,24.57215 8.3167,49.90037 3.4023,24.95018 3.4023,50.2784 z m -72.9603,-91.86204 q 0,-4.5364 -0.7561,-14.74329 -0.378,-10.58493 -2.2682,-20.79182 -1.8902,-10.58493 -6.0485,-18.52363 -3.7804,-8.31672 -10.585,-8.31672 -3.7803,0 -7.1826,5.29246 -3.4023,4.91443 -6.0485,12.85313 -2.6463,7.56066 -4.9145,17.01148 -1.8901,9.45083 -3.4023,18.14559 -1.5121,8.69476 -2.2682,15.87739 -0.756,6.8046 -1.1341,9.82886 22.682,-1.89016 44.608,-5.67049 l 0,-10.96296 z"
               style="font-style:normal;font-variant:normal;font-weight:normal;font-stretch:normal;font-size:387.105896px;font-family:Chewy;-inkscape-font-specification:Chewy;fill:#f03a47;fill-opacity:1"
               id="path4173"
               inkscape:connector-curvature="0" /><path
               d="m -2357.2525,568.66812 q 0,8.69476 -5.6705,15.12133 -5.2925,6.42656 -12.8531,10.58492 -6.8046,4.15837 -13.9873,9.0728 -7.1826,4.5364 -13.2311,10.58493 -6.0485,5.67049 -9.8289,12.85312 -3.7803,7.18263 -3.7803,16.25542 0,7.9387 3.7803,14.36526 3.7804,6.42657 9.0728,12.85313 5.6705,6.04853 12.0971,12.85312 6.8046,6.42657 12.097,14.74329 5.6705,7.9387 9.4509,18.14559 3.7803,10.2069 3.7803,23.81609 0,9.45083 -4.1584,21.54789 -3.7803,11.71902 -10.5849,23.81608 -6.8046,12.09706 -16.2554,23.43805 -9.0728,11.341 -19.6577,20.41379 -10.2069,8.69476 -21.5479,13.98723 -11.341,5.67049 -21.9259,5.67049 -11.7191,0 -20.7919,-6.42656 -9.0728,-6.42656 -9.0728,-19.27969 0,-8.69476 4.1584,-15.87739 4.1584,-7.56066 10.2069,-14.36526 6.0485,-6.80459 13.2312,-13.23116 7.5606,-6.42656 13.6091,-12.85312 6.0486,-6.42656 10.2069,-13.23116 4.1584,-7.18263 4.1584,-15.12132 0,-10.96296 -7.9387,-22.30396 -7.5607,-11.71902 -17.0115,-23.81608 -9.4508,-12.47509 -17.3895,-25.32822 -7.5607,-12.85313 -7.5607,-26.08428 0,-16.25543 8.6948,-34.02298 8.6948,-18.14559 22.3039,-32.88888 13.6092,-15.12133 30.6207,-24.95019 17.0115,-9.82886 33.645,-9.82886 13.2311,0 22.682,7.9387 9.4508,7.93869 9.4508,21.54788 z"
               style="font-style:normal;font-variant:normal;font-weight:normal;font-stretch:normal;font-size:387.105896px;font-family:Chewy;-inkscape-font-specification:Chewy;fill:#f03a47;fill-opacity:1"
               id="path4175"
               inkscape:connector-curvature="0" /><path
               d="m -2111.153,612.14193 q 0,22.68199 -3.0242,44.98594 -3.0243,21.92592 -7.1827,43.47381 -1.1341,5.67049 -3.4023,18.52362 -2.2682,12.47509 -5.6705,27.97445 -3.0242,15.49935 -7.5606,32.13281 -4.5364,16.63346 -10.2069,30.24265 -5.2925,13.60919 -12.0971,22.68199 -6.4265,8.69476 -13.9872,8.69476 -7.5607,0 -14.7433,-7.56067 -6.8046,-7.56066 -12.8531,-18.90165 -5.6705,-11.71903 -10.5849,-26.08428 -4.9145,-14.36526 -8.6948,-27.59642 -3.4023,-13.60919 -6.0485,-24.57215 -2.2682,-11.341 -3.4023,-17.01149 -1.5122,4.91443 -4.9145,15.87739 -3.0242,10.58492 -7.9386,24.19412 -4.9145,13.23116 -10.963,27.21838 -6.0485,13.98722 -12.8531,25.70625 -6.4266,11.71903 -13.6092,19.27969 -7.1827,7.56066 -14.3653,7.56066 -9.4508,0 -16.6334,-8.31673 -7.1827,-8.31673 -12.0971,-21.16985 -4.9144,-13.23116 -8.3167,-29.10855 -3.4023,-16.25542 -5.2925,-31.75478 -1.8902,-15.87739 -3.0243,-29.48658 -1.1341,-13.60919 -1.5121,-21.54789 -1.1341,-18.14559 -2.2682,-35.53511 -0.7561,-17.38952 -0.7561,-35.53511 0,-6.42656 0.3781,-17.38952 0.378,-11.341 2.6462,-21.92592 2.6462,-10.96296 7.5607,-18.90166 5.2924,-8.31673 15.1213,-9.07279 8.3167,-0.37804 14.3653,6.80459 6.0485,7.18263 10.2068,19.27969 4.1584,11.71903 6.4266,26.46232 2.6462,14.36525 3.7803,27.97445 1.5122,13.60919 1.8902,24.95018 0.378,11.34099 0,16.63346 l -0.378,9.82886 q 1.1341,-4.91443 3.7803,-15.49936 3.0243,-10.58493 7.1826,-23.81608 4.1584,-13.6092 8.6948,-27.59642 4.9144,-14.36526 10.2069,-26.08428 5.2925,-11.71903 10.5849,-19.27969 5.2925,-7.9387 10.2069,-8.31673 6.4266,-0.37803 12.0971,7.56066 6.0485,7.9387 10.5849,20.79182 4.9144,12.47509 8.6948,27.97445 3.7803,15.49936 6.4265,30.24265 3.0243,14.36526 4.5364,26.08428 1.5122,11.71903 2.2682,16.63346 0.3781,-6.04853 1.8902,-18.90166 1.5121,-13.23115 4.1583,-29.10854 2.6463,-16.25543 6.4266,-32.88888 4.1584,-17.01149 9.4508,-30.99872 5.2925,-13.98722 12.0971,-22.68198 6.8046,-9.0728 15.1213,-9.0728 9.4508,0 15.1213,6.42656 5.6705,6.04853 8.3168,15.12133 2.6462,8.69476 3.4023,18.52362 0.756,9.45083 0.756,15.87739 z"
               style="font-style:normal;font-variant:normal;font-weight:normal;font-stretch:normal;font-size:387.105896px;font-family:Chewy;-inkscape-font-specification:Chewy;fill:#f03a47;fill-opacity:1"
               id="path4177"
               inkscape:connector-curvature="0" /><path
               d="m -1908.1491,778.09846 q 0,7.56066 -1.5122,18.14559 -1.1341,10.58493 -4.9144,20.41379 -3.7803,9.45083 -10.2069,16.25542 -6.4266,6.42656 -17.0115,6.42656 -13.9872,0 -21.1698,-10.20689 -6.8046,-10.20689 -9.8289,-24.19412 -3.0243,-14.36526 -3.7803,-29.10855 -0.3781,-14.74329 -0.7561,-23.43805 -27.2184,4.5364 -53.6807,7.9387 -0.7561,8.69476 -3.4023,21.54788 -2.2682,12.85313 -7.5607,24.95019 -4.9144,11.71902 -13.2311,20.41378 -7.9387,8.69477 -19.6577,8.69477 -9.0728,0 -14.3653,-6.42657 -4.9144,-6.80459 -7.5607,-15.87739 -2.6462,-9.07279 -3.4023,-18.52362 -0.378,-9.82886 -0.378,-16.25542 0,-21.54789 3.4023,-42.33971 3.4023,-21.16985 7.9387,-41.96167 2.2682,-10.96296 6.0485,-25.70625 3.7804,-14.7433 9.0728,-30.24265 5.6705,-15.87739 12.8532,-30.99872 7.5606,-15.49935 17.0114,-27.59641 9.4509,-12.09706 21.5479,-19.65772 12.0971,-7.56067 26.8404,-7.56067 14.3652,0 24.9502,6.42657 10.5849,6.42656 18.5236,17.01149 7.9387,10.58492 13.2311,24.19411 5.2925,13.23116 8.6948,27.21839 3.7803,13.60919 6.0485,26.84035 2.6463,13.23116 4.5364,23.43805 4.9145,24.57215 8.3168,49.90037 3.4023,24.95018 3.4023,50.2784 z m -72.9604,-91.86204 q 0,-4.5364 -0.7561,-14.74329 -0.378,-10.58493 -2.2682,-20.79182 -1.8902,-10.58493 -6.0485,-18.52363 -3.7804,-8.31672 -10.585,-8.31672 -3.7803,0 -7.1826,5.29246 -3.4023,4.91443 -6.0485,12.85313 -2.6462,7.56066 -4.9144,17.01148 -1.8902,9.45083 -3.4023,18.14559 -1.5122,8.69476 -2.2682,15.87739 -0.7561,6.8046 -1.1341,9.82886 22.682,-1.89016 44.6079,-5.67049 l 0,-10.96296 z"
               style="font-style:normal;font-variant:normal;font-weight:normal;font-stretch:normal;font-size:387.105896px;font-family:Chewy;-inkscape-font-specification:Chewy;fill:#f03a47;fill-opacity:1"
               id="path4179"
               inkscape:connector-curvature="0" /></g></g></g></g></g></svg>